<svg xmlns="http://www.w3.org/2000/svg" viewBox="0 0 48 48">
          <path fill="#3776AB" d="M24,4c-4.9,0-9,4-9,9v6h18v-6C33,8,28.9,4,24,4z"/>
          <circle fill="#FFD43B" cx="30" cy="10" r="2"/>
          <path fill="#FFD43B" d="M24,44c4.9,0,9-4,9-9v-6H15v6C15,40,19.1,44,24,44z"/>
          <circle fill="#3776AB" cx="18" cy="38" r="2"/>
          <path fill="#3776AB" d="M33 24c0 1.1-0.9 2-2 2h-14c-1.1 0-2-0.9-2-2v-4c0-1.1 0.9-2 2-2h3v-2c0-1.7 1.3-3 3-3h3c1.7 0 3 1.3 3 3v2h3c1.1 0 2 0.9 2 2V24z"/>
          <path fill="#FFD43B" d="M15 24c0-1.1 0.9-2 2-2h14c1.1 0 2 0.9 2 2v4c0 1.1-0.9 2-2 2h-3v2c0 1.7-1.3 3-3 3h-3c-1.7 0-3-1.3-3-3v-2h-3c-1.1 0-2-0.9-2-2V24z"/>
        </svg>